<?xml version="1.0" encoding="UTF-8" standalone="no"?>
<!-- Created with Inkscape (http://www.inkscape.org/) -->

<svg
   xmlns:dc="http://purl.org/dc/elements/1.1/"
   xmlns:cc="http://creativecommons.org/ns#"
   xmlns:rdf="http://www.w3.org/1999/02/22-rdf-syntax-ns#"
   xmlns:svg="http://www.w3.org/2000/svg"
   xmlns="http://www.w3.org/2000/svg"
   xmlns:sodipodi="http://sodipodi.sourceforge.net/DTD/sodipodi-0.dtd"
   xmlns:inkscape="http://www.inkscape.org/namespaces/inkscape"
   width="34.712978mm"
   height="16.107265mm"
   viewBox="0 0 34.712978 16.107265"
   version="1.1"
   id="svg8"
   inkscape:version="0.92.3 (2405546, 2018-03-11)"
   sodipodi:docname="Lietuvos Bankas Logo.svg">
  <defs
     id="defs2">
    <clipPath
       id="clipPath47"
       clipPathUnits="userSpaceOnUse">
      <path
         inkscape:connector-curvature="0"
         id="path45"
         d="M 0,0 H 399.685 V 595.276 H 0 Z" />
    </clipPath>
    <clipPath
       id="clipPath55"
       clipPathUnits="userSpaceOnUse">
      <path
         inkscape:connector-curvature="0"
         id="path53"
         d="M -1,384.162 H 403.874 V 164.102 H -1 Z" />
    </clipPath>
    <clipPath
       id="clipPath739"
       clipPathUnits="userSpaceOnUse">
      <path
         inkscape:connector-curvature="0"
         id="path737"
         d="M 0,595.275 V 369.271 c 23.582,-16.594 52.337,-26.34 83.363,-26.34 v 0 c 80.089,0 145.015,64.925 145.015,145.015 v 0 c 0,42.543 -18.315,80.803 -47.496,107.329 v 0 z" />
    </clipPath>
    <clipPath
       id="clipPath759"
       clipPathUnits="userSpaceOnUse">
      <path
         inkscape:connector-curvature="0"
         id="path757"
         d="M 0,0 H 399.685 V 595.276 H 0 Z" />
    </clipPath>
    <clipPath
       id="clipPath787"
       clipPathUnits="userSpaceOnUse">
      <path
         inkscape:connector-curvature="0"
         id="path785"
         d="m 399.359,276.106 c -94.374,0 -170.879,-76.505 -170.879,-170.878 v 0 C 228.48,65.535 242.01,29.008 264.715,0 v 0 h 134.97 v 276.106 c -0.11,0 -0.216,0 -0.326,0" />
    </clipPath>
    <clipPath
       id="clipPath799"
       clipPathUnits="userSpaceOnUse">
      <path
         inkscape:connector-curvature="0"
         id="path797"
         d="M 95.528,67.897 C 95.528,30.398 125.926,0 163.425,0 v 0 c 37.498,0 67.897,30.398 67.897,67.897 v 0 c 0,37.498 -30.399,67.897 -67.897,67.897 v 0 c -37.499,0 -67.897,-30.399 -67.897,-67.897" />
    </clipPath>
    <clipPath
       id="clipPath811"
       clipPathUnits="userSpaceOnUse">
      <path
         inkscape:connector-curvature="0"
         id="path809"
         d="m 280.454,416.755 h 59.275 v 69.26 h -59.275 z" />
    </clipPath>
  </defs>
  <sodipodi:namedview
     id="base"
     pagecolor="#ffffff"
     bordercolor="#666666"
     borderopacity="1.0"
     inkscape:pageopacity="0.0"
     inkscape:pageshadow="2"
     inkscape:zoom="15.839192"
     inkscape:cx="52.194288"
     inkscape:cy="22.00534"
     inkscape:document-units="mm"
     inkscape:current-layer="layer1"
     showgrid="false"
     fit-margin-top="0"
     fit-margin-left="0"
     fit-margin-right="0"
     fit-margin-bottom="0"
     inkscape:window-width="1920"
     inkscape:window-height="1023"
     inkscape:window-x="0"
     inkscape:window-y="27"
     inkscape:window-maximized="1" />
  <metadata
     id="metadata5">
    <rdf:RDF>
      <cc:Work
         rdf:about="">
        <dc:format>image/svg+xml</dc:format>
        <dc:type
           rdf:resource="http://purl.org/dc/dcmitype/StillImage" />
        <dc:title></dc:title>
      </cc:Work>
    </rdf:RDF>
  </metadata>
  <g
     inkscape:label="Layer 1"
     inkscape:groupmode="layer"
     id="layer1"
     transform="translate(-95.620411,-86.22557)">
    <g
       id="g753"
       transform="matrix(0.35277777,0,0,-0.35277777,3.5833371,284.82728)">
      <g
         id="g755"
         clip-path="url(#clipPath759)">
        <g
           id="g761"
           transform="translate(270.3765,517.9401)">
          <path
             d="M 0,0 H 1.813 V -0.564 H -0.674 V 3.121 H 1.714 V 2.556 H 0 V 1.604 H 1.472 V 1.039 H 0 Z m 8.903,-0.576 c 0.157,0.037 0.294,0.091 0.415,0.162 0.12,0.07 0.223,0.157 0.306,0.259 0.084,0.102 0.149,0.217 0.199,0.346 0.04,0.102 0.07,0.216 0.087,0.341 0.018,0.125 0.027,0.265 0.027,0.419 v 2.17 H 9.262 V 1.012 C 9.262,0.751 9.23,0.547 9.167,0.4 9.098,0.237 8.997,0.118 8.862,0.046 8.728,-0.026 8.57,-0.063 8.388,-0.063 8.207,-0.063 8.049,-0.026 7.914,0.046 7.781,0.118 7.679,0.237 7.609,0.4 7.547,0.547 7.515,0.751 7.515,1.012 V 3.121 H 6.841 V 0.951 C 6.841,0.797 6.849,0.657 6.867,0.532 6.884,0.407 6.913,0.293 6.953,0.191 7.003,0.062 7.069,-0.053 7.152,-0.155 7.234,-0.257 7.334,-0.344 7.451,-0.414 7.57,-0.485 7.705,-0.539 7.859,-0.576 8.013,-0.614 8.187,-0.633 8.38,-0.633 c 0.192,0 0.368,0.019 0.523,0.057 m 9.118,2.59 C 18.021,1.757 17.95,1.539 17.808,1.36 17.665,1.181 17.445,1.048 17.147,0.962 V 0.951 l 1.097,-1.515 h -0.81 l -1.003,1.427 h -0.462 v -1.427 h -0.675 v 3.685 h 1.121 c 0.186,0 0.358,-0.01 0.518,-0.031 0.16,-0.022 0.297,-0.053 0.411,-0.096 0.217,-0.082 0.383,-0.205 0.501,-0.368 0.117,-0.162 0.176,-0.366 0.176,-0.612 M 16.303,1.427 c 0.154,0 0.284,0.007 0.392,0.021 0.108,0.014 0.198,0.034 0.271,0.062 0.136,0.051 0.23,0.122 0.282,0.211 0.053,0.089 0.079,0.191 0.079,0.306 0,0.1 -0.021,0.188 -0.062,0.264 -0.041,0.076 -0.112,0.136 -0.211,0.18 -0.064,0.03 -0.144,0.051 -0.242,0.065 -0.098,0.013 -0.218,0.02 -0.361,0.02 H 15.969 V 1.427 Z m 10.11,0.624 c -0.079,0.234 -0.196,0.436 -0.35,0.605 -0.153,0.169 -0.341,0.3 -0.564,0.394 -0.224,0.093 -0.478,0.14 -0.763,0.14 -0.284,0 -0.537,-0.047 -0.76,-0.14 C 23.752,2.956 23.564,2.825 23.411,2.656 23.257,2.487 23.141,2.285 23.061,2.051 22.981,1.817 22.941,1.56 22.941,1.278 c 0,-0.28 0.04,-0.538 0.12,-0.772 0.08,-0.234 0.196,-0.436 0.35,-0.605 0.153,-0.169 0.341,-0.3 0.565,-0.393 0.223,-0.094 0.476,-0.141 0.76,-0.141 0.285,0 0.539,0.047 0.763,0.141 0.223,0.093 0.411,0.224 0.564,0.393 0.154,0.169 0.271,0.371 0.35,0.605 0.08,0.234 0.12,0.492 0.12,0.772 0,0.282 -0.04,0.539 -0.12,0.773 M 25.753,0.69 C 25.698,0.523 25.623,0.383 25.525,0.272 25.427,0.161 25.311,0.077 25.177,0.021 c -0.134,-0.056 -0.28,-0.084 -0.441,-0.084 -0.158,0 -0.306,0.028 -0.44,0.084 -0.133,0.056 -0.249,0.14 -0.347,0.251 -0.097,0.111 -0.173,0.251 -0.228,0.418 -0.055,0.168 -0.084,0.365 -0.084,0.588 0,0.225 0.029,0.421 0.084,0.588 0.055,0.169 0.131,0.309 0.228,0.421 0.098,0.112 0.214,0.195 0.347,0.25 0.134,0.056 0.282,0.083 0.44,0.083 0.161,0 0.307,-0.027 0.441,-0.083 0.134,-0.055 0.25,-0.138 0.348,-0.25 0.098,-0.112 0.173,-0.252 0.228,-0.421 0.055,-0.167 0.083,-0.363 0.083,-0.588 0,-0.223 -0.028,-0.42 -0.083,-0.588 m 7.662,-0.196 c 0,0.093 -0.024,0.169 -0.07,0.227 -0.046,0.058 -0.108,0.105 -0.188,0.142 -0.079,0.036 -0.167,0.066 -0.265,0.089 -0.099,0.023 -0.202,0.046 -0.31,0.068 -0.144,0.031 -0.28,0.068 -0.411,0.111 -0.13,0.044 -0.244,0.103 -0.343,0.179 -0.099,0.076 -0.179,0.174 -0.237,0.291 -0.059,0.117 -0.089,0.264 -0.089,0.441 0,0.194 0.035,0.363 0.102,0.507 0.068,0.144 0.161,0.264 0.277,0.359 0.118,0.094 0.253,0.165 0.41,0.212 0.158,0.047 0.334,0.07 0.531,0.07 0.197,0 0.394,-0.019 0.593,-0.058 0.197,-0.038 0.368,-0.088 0.511,-0.148 V 2.405 c -0.191,0.075 -0.374,0.13 -0.549,0.164 -0.176,0.034 -0.341,0.051 -0.495,0.051 -0.222,0 -0.393,-0.04 -0.514,-0.121 -0.12,-0.081 -0.18,-0.203 -0.18,-0.364 0,-0.093 0.02,-0.171 0.059,-0.231 0.04,-0.061 0.093,-0.111 0.161,-0.15 0.069,-0.04 0.147,-0.072 0.235,-0.095 0.088,-0.025 0.182,-0.046 0.28,-0.066 0.157,-0.033 0.306,-0.072 0.448,-0.115 0.142,-0.043 0.269,-0.103 0.379,-0.18 0.11,-0.077 0.197,-0.177 0.261,-0.302 0.065,-0.124 0.097,-0.282 0.097,-0.475 0,-0.198 -0.037,-0.37 -0.11,-0.515 -0.074,-0.145 -0.178,-0.265 -0.312,-0.36 -0.135,-0.094 -0.3,-0.165 -0.492,-0.21 C 33,-0.61 32.79,-0.633 32.56,-0.633 c -0.2,0 -0.396,0.02 -0.591,0.059 -0.193,0.04 -0.355,0.095 -0.483,0.167 v 0.57 c 0.181,-0.078 0.359,-0.137 0.531,-0.172 0.173,-0.036 0.351,-0.054 0.534,-0.054 0.107,0 0.212,0.009 0.315,0.027 0.103,0.017 0.195,0.047 0.277,0.089 0.081,0.042 0.147,0.099 0.197,0.172 0.049,0.073 0.075,0.163 0.075,0.269 m 6.607,2.627 h -0.675 v -3.685 h 0.675 z m 7.047,-2.627 c 0,0.093 -0.023,0.169 -0.069,0.227 -0.047,0.058 -0.108,0.105 -0.188,0.142 -0.079,0.036 -0.167,0.066 -0.266,0.089 -0.098,0.023 -0.202,0.046 -0.309,0.068 -0.144,0.031 -0.28,0.068 -0.411,0.111 -0.13,0.044 -0.244,0.103 -0.344,0.179 -0.099,0.076 -0.178,0.174 -0.237,0.291 -0.058,0.117 -0.088,0.264 -0.088,0.441 0,0.194 0.033,0.363 0.102,0.507 0.068,0.144 0.161,0.264 0.277,0.359 0.117,0.094 0.253,0.165 0.41,0.212 0.158,0.047 0.334,0.07 0.531,0.07 0.196,0 0.393,-0.019 0.592,-0.058 0.198,-0.038 0.369,-0.088 0.512,-0.148 V 2.405 C 47.39,2.48 47.207,2.535 47.032,2.569 46.856,2.603 46.69,2.62 46.537,2.62 46.314,2.62 46.143,2.58 46.023,2.499 45.902,2.418 45.842,2.296 45.842,2.135 c 0,-0.093 0.021,-0.171 0.06,-0.231 0.04,-0.061 0.093,-0.111 0.161,-0.15 0.069,-0.04 0.146,-0.072 0.234,-0.095 0.089,-0.025 0.182,-0.046 0.281,-0.066 0.156,-0.033 0.305,-0.072 0.448,-0.115 0.141,-0.043 0.268,-0.103 0.378,-0.18 0.111,-0.077 0.198,-0.177 0.262,-0.302 0.065,-0.124 0.097,-0.282 0.097,-0.475 0,-0.198 -0.037,-0.37 -0.111,-0.515 -0.073,-0.145 -0.177,-0.265 -0.312,-0.36 -0.134,-0.094 -0.299,-0.165 -0.491,-0.21 -0.194,-0.046 -0.405,-0.069 -0.635,-0.069 -0.199,0 -0.396,0.02 -0.59,0.059 -0.193,0.04 -0.355,0.095 -0.483,0.167 v 0.57 c 0.181,-0.078 0.359,-0.137 0.531,-0.172 0.173,-0.036 0.351,-0.054 0.534,-0.054 0.107,0 0.212,0.009 0.315,0.027 0.103,0.017 0.194,0.047 0.277,0.089 0.081,0.042 0.146,0.099 0.196,0.172 0.049,0.073 0.075,0.163 0.075,0.269 m 7.055,2.062 h 1.187 V 3.121 H 52.259 V 2.556 h 1.19 v -3.12 h 0.675 z M 60.999,0 h 1.813 v -0.564 h -2.488 v 3.685 h 2.388 V 2.556 H 60.999 V 1.604 H 62.47 V 1.039 h -1.471 z m 8.897,0.425 c -0.094,0.336 -0.194,0.65 -0.3,0.942 L 68.96,3.121 h -0.942 v -3.685 h 0.674 v 1.871 c 0,0.293 -0.011,0.61 -0.032,0.95 h 0.025 c 0.031,-0.105 0.067,-0.223 0.11,-0.353 0.042,-0.131 0.086,-0.259 0.132,-0.386 l 0.763,-2.082 h 0.435 l 0.763,2.082 c 0.046,0.127 0.091,0.255 0.133,0.386 0.042,0.13 0.078,0.248 0.109,0.353 h 0.025 C 71.133,1.895 71.123,1.577 71.123,1.303 v -1.867 h 0.673 V 3.121 H 70.849 L 70.213,1.359 C 70.094,1.026 69.994,0.715 69.913,0.425 Z m 9.135,-0.05 h -1.388 l -0.362,-0.939 h -0.718 l 1.462,3.685 h 0.617 l 1.462,-3.685 h -0.713 z m -0.7,1.859 C 78.202,1.849 78.087,1.527 77.986,1.268 L 77.86,0.94 h 0.953 L 78.686,1.268 C 78.587,1.529 78.472,1.851 78.342,2.234 Z M -4.868,8.164 V 9.43 h -2.804 v 4.81 H -9.484 V 8.164 Z m 3.016,6.076 H -3.664 V 8.164 h 1.812 z M 4.873,8.164 V 9.372 H 1.785 v 1.316 H 4.6 v 1.149 H 1.785 v 1.215 H 4.766 V 14.24 H -0.027 V 8.164 Z m 4.601,0 v 4.874 h 1.675 V 14.24 H 5.987 V 13.038 H 7.662 V 8.164 Z m 7.034,6.076 v -3.5 c 0,-0.986 -0.39,-1.479 -1.169,-1.479 -0.779,0 -1.169,0.493 -1.169,1.479 v 3.5 h -1.812 v -3.77 c 0,-0.806 0.276,-1.416 0.828,-1.827 0.52,-0.389 1.237,-0.583 2.153,-0.583 0.916,0 1.633,0.194 2.153,0.583 0.551,0.411 0.827,1.021 0.827,1.827 v 3.77 z m 7.546,-6.076 2.318,6.076 h -1.86 l -1.52,-4.771 h -0.019 l -1.509,4.771 h -1.929 l 2.279,-6.076 z m 3.9,0.74 c 0.591,-0.563 1.435,-0.844 2.532,-0.844 1.098,0 1.945,0.278 2.543,0.835 0.577,0.551 0.866,1.32 0.866,2.306 0,0.993 -0.292,1.765 -0.876,2.316 -0.584,0.551 -1.429,0.827 -2.533,0.827 -1.104,0 -1.948,-0.276 -2.532,-0.827 -0.584,-0.551 -0.876,-1.323 -0.876,-2.316 0,-0.986 0.292,-1.752 0.876,-2.297 m 1.315,3.603 c 0.267,0.424 0.671,0.636 1.217,0.636 0.546,0 0.952,-0.212 1.218,-0.636 0.214,-0.337 0.321,-0.771 0.321,-1.306 0,-0.522 -0.107,-0.954 -0.321,-1.297 -0.273,-0.429 -0.679,-0.643 -1.218,-0.643 -0.539,0 -0.944,0.214 -1.217,0.643 -0.214,0.343 -0.322,0.775 -0.322,1.297 0,0.535 0.108,0.969 0.322,1.306 M 37.238,8.06 c 1.993,0 2.99,0.666 2.99,2.001 0,0.633 -0.279,1.103 -0.838,1.41 -0.207,0.11 -0.721,0.279 -1.538,0.505 -0.558,0.151 -0.837,0.351 -0.837,0.601 0,0.377 0.404,0.566 1.216,0.566 0.552,0 1.056,-0.093 1.511,-0.279 l 0.116,1.254 c -0.494,0.15 -1.077,0.226 -1.753,0.226 -0.811,0 -1.474,-0.128 -1.987,-0.383 -0.649,-0.319 -0.974,-0.812 -0.974,-1.48 0,-0.632 0.279,-1.102 0.838,-1.41 0.149,-0.087 0.662,-0.261 1.539,-0.522 0.559,-0.169 0.837,-0.4 0.837,-0.697 0,-0.394 -0.373,-0.591 -1.12,-0.591 -0.694,0 -1.318,0.133 -1.87,0.4 L 35.212,8.321 C 35.816,8.146 36.491,8.06 37.238,8.06 m 11.307,0.104 c 1.767,0 2.649,0.586 2.649,1.758 0,0.726 -0.457,1.172 -1.373,1.34 v 0.018 c 0.799,0.238 1.198,0.711 1.198,1.419 0,0.534 -0.231,0.934 -0.691,1.201 -0.384,0.226 -0.89,0.34 -1.52,0.34 H 45.682 V 8.164 Z m -0.496,2.576 c 0.395,0 0.691,-0.035 0.887,-0.104 0.297,-0.11 0.447,-0.316 0.447,-0.619 0,-0.47 -0.452,-0.704 -1.354,-0.704 h -0.535 v 1.427 z m -0.03,2.35 c 0.351,0 0.611,-0.028 0.78,-0.086 0.272,-0.088 0.408,-0.261 0.408,-0.523 0,-0.43 -0.402,-0.644 -1.207,-0.644 h -0.506 v 1.253 z m 5.916,-4.926 0.53,1.297 h 2.554 l 0.509,-1.297 h 1.944 l -2.576,6.076 h -2.22 L 52.095,8.164 Z m 0.955,2.446 0.877,2.376 h 0.019 l 0.808,-2.376 z m 7.513,-2.446 -0.058,4.126 c -0.004,0.053 -0.011,0.108 -0.021,0.168 l 0.003,0.002 c 0.014,-0.054 0.029,-0.107 0.05,-0.155 l 2.52,-4.141 h 2.168 v 6.076 h -1.682 l 0.001,-3.68 c 0,-0.182 -0.007,-0.332 0.033,-0.51 L 65.41,10.048 c -0.011,0.042 -0.025,0.088 -0.046,0.14 L 62.955,14.24 H 60.711 V 8.164 Z m 8.351,0 v 2.759 l 2.123,-2.759 h 2.275 l -2.664,3.246 2.47,2.83 H 72.809 L 70.754,11.759 V 14.24 H 68.942 V 8.164 Z m 6.676,0 0.529,1.297 h 2.556 l 0.508,-1.297 h 1.944 L 80.391,14.24 H 78.17 L 75.59,8.164 Z m 0.955,2.446 0.877,2.376 h 0.02 l 0.807,-2.376 z m 7.54,-2.55 c 1.993,0 2.99,0.666 2.99,2.001 0,0.633 -0.278,1.105 -0.838,1.41 -0.206,0.113 -0.72,0.281 -1.538,0.505 -0.559,0.153 -0.838,0.351 -0.838,0.601 0,0.377 0.405,0.566 1.217,0.566 0.552,0 1.055,-0.093 1.51,-0.279 l 0.117,1.254 c -0.494,0.15 -1.079,0.226 -1.753,0.226 -0.812,0 -1.474,-0.129 -1.987,-0.383 -0.649,-0.32 -0.974,-0.812 -0.974,-1.48 0,-0.632 0.28,-1.1 0.837,-1.41 0.151,-0.085 0.663,-0.26 1.539,-0.522 0.559,-0.167 0.837,-0.4 0.837,-0.697 0,-0.394 -0.373,-0.591 -1.119,-0.591 -0.695,0 -1.319,0.133 -1.87,0.4 L 83.898,8.321 C 84.502,8.146 85.178,8.06 85.925,8.06"
             style="fill:#009877;fill-opacity:1;fill-rule:nonzero;stroke:none"
             id="path763"
             inkscape:connector-curvature="0" />
        </g>
        <g
           id="g765"
           transform="translate(306.4678,557.1149)">
          <path
             d="m 0,0 c -0.984,-0.055 -1.971,-0.139 -2.936,-0.252 v -10.433 c 0.801,0.117 1.995,0.235 2.923,0.31 C 0.137,-6.764 0.125,-3.65 0,0 M 5.443,0.012 H 5.429 C 4.787,0.046 4.143,0.047 3.5,0.03 v -10.278 c 1.054,0.023 2.347,-0.058 3.429,-0.143 l -0.017,-3.157 c -1.207,0.164 -2.242,0.24 -3.412,0.282 v -2.53 c 1.566,0.052 1.969,-0.001 3.471,-0.021 0.334,0.017 0.648,0.067 0.944,0.144 1.74,0.314 3.067,1.842 3.067,3.67 0,1.831 -1.244,3.321 -3.032,3.663 -0.775,0.141 -1.442,0.186 -2.186,0.181 v 2.643 c 0.107,0 0.171,0 0.27,-0.001 1.266,0 2.538,0.221 3.238,1.093 0.375,0.432 0.603,0.995 0.603,1.61 v 0.005 0.024 c 0,0.288 -0.051,0.565 -0.144,0.822 -0.12,0.38 -0.334,0.69 -0.618,0.943 -0.821,0.777 -2.467,0.969 -3.67,1.032 m 4.824,-6.661 c 2.632,-0.26 4.365,-2.942 4.303,-5.42 -0.115,-3.797 -3.276,-6.726 -7.825,-6.659 -1.986,0.061 -3.922,0.186 -7.211,-0.021 0.187,1.884 0.318,3.596 0.356,5.42 -1.974,0 -4.261,-0.227 -6.354,-0.491 0.376,5.397 0.373,10.736 -0.051,16.127 2.116,0.313 4.229,0.591 6.406,0.689 -0.017,0.822 -0.112,1.853 -0.204,2.727 1.191,0.112 2.362,0.155 3.813,0.11 V 3.067 C 4.618,3.056 5.754,2.992 6.868,2.903 8.325,2.76 10.031,2.466 11.291,1.573 c 1.149,-0.883 1.893,-2.271 1.893,-3.827 0,-1.669 -0.856,-3.146 -2.152,-4.013 -0.135,-0.072 -0.281,-0.144 -0.408,-0.208 -0.114,-0.058 -0.219,-0.113 -0.357,-0.174"
             style="fill:#009877;fill-opacity:1;fill-rule:nonzero;stroke:none"
             id="path767"
             inkscape:connector-curvature="0" />
        </g>
      </g>
    </g>
  </g>
</svg>
